<?xml version="1.0" standalone="no"?>
<!DOCTYPE svg PUBLIC "-//W3C//DTD SVG 20010904//EN"
 "http://www.w3.org/TR/2001/REC-SVG-20010904/DTD/svg10.dtd">
<svg version="1.0" xmlns="http://www.w3.org/2000/svg"
 width="512.000000pt" height="512.000000pt" viewBox="0 0 512.000000 512.000000"
 preserveAspectRatio="xMidYMid meet">
<metadata>
Created by potrace 1.14, written by Peter Selinger 2001-2017
</metadata>
<g transform="translate(0.000000,512.000000) scale(0.100000,-0.100000)"
fill="#000000" stroke="none">
<path d="M1934 3680 c-31 -13 -72 -66 -80 -105 -12 -66 19 -106 301 -380 l265
-257 0 -684 0 -684 -355 0 -355 0 0 -75 c0 -53 4 -75 13 -75 13 0 241 37 437
70 63 11 174 29 245 41 72 11 135 24 140 29 6 4 33 11 60 14 28 4 60 10 73 13
l22 5 0 673 0 672 274 269 c296 291 307 306 287 381 -20 75 -98 118 -178 99
-18 -5 -113 -92 -276 -254 l-247 -247 -243 242 c-133 132 -252 246 -264 252
-25 13 -89 14 -119 1z"/>
<path d="M3315 1415 c-38 -8 -194 -34 -345 -60 -151 -26 -336 -57 -410 -70
-74 -13 -236 -40 -360 -60 -124 -19 -261 -42 -305 -50 -44 -8 -104 -18 -132
-21 l-53 -7 0 -149 0 -150 24 6 c13 3 95 17 182 31 87 13 242 38 344 55 102
16 244 39 315 50 72 11 182 29 245 40 239 42 544 90 566 90 l24 0 0 155 c0
118 -3 155 -12 154 -7 -1 -44 -7 -83 -14z"/>
<path d="M3210 825 c-74 -13 -236 -39 -360 -59 -124 -20 -277 -45 -340 -56
-63 -11 -200 -34 -305 -50 -355 -57 -450 -73 -459 -81 -15 -13 82 -106 137
-130 l52 -24 620 0 c700 0 675 -3 763 79 71 65 85 103 90 234 l4 112 -33 -1
c-19 0 -95 -11 -169 -24z"/>
</g>
</svg>
